<svg version="1.1" id="Layer_1" xmlns="http://www.w3.org/2000/svg" xmlns:xlink="http://www.w3.org/1999/xlink" x="0px" y="0px"
	 width="100%" viewBox="0 0 1024 1024" enable-background="new 0 0 1024 1024" xml:space="preserve">
<path fill="#000000" opacity="1.000000" stroke="none" 
	d="
M436.690063,422.243591 
	C491.140198,452.865997 523.547791,498.788849 533.995850,559.885681 
	C537.325623,579.356995 533.810730,598.735107 529.403870,617.778320 
	C518.854919,663.363098 500.191711,705.873108 479.624847,747.625549 
	C457.074677,793.404297 431.504639,837.472351 404.130249,880.518616 
	C401.866119,884.078979 400.138123,884.421143 396.759399,881.877014 
	C352.126221,848.269714 309.170471,812.690796 268.904358,773.911987 
	C241.494919,747.514893 215.434402,719.922913 193.435135,688.751831 
	C179.141266,668.498718 166.345566,647.376282 161.801605,622.548889 
	C151.732681,567.534058 164.206299,517.640259 197.965347,473.370117 
	C226.945831,435.366364 265.569611,412.120483 312.451080,403.137695 
	C355.874634,394.817535 397.213348,401.667328 436.690063,422.243591 
M338.059509,461.621460 
	C332.950348,462.304413 327.783966,462.702026 322.740692,463.713531 
	C257.798767,476.738129 217.504456,541.336121 234.014542,605.426025 
	C248.654831,662.257690 304.832153,700.198547 364.988220,689.785339 
	C422.954987,679.751221 466.871704,625.987915 459.332886,562.993469 
	C452.037018,502.029022 400.538177,459.222321 338.059509,461.621460 
z"/>
<path fill="#000000" opacity="1.000000" stroke="none" 
	d="
M638.530884,489.670807 
	C641.611938,502.827393 642.792358,515.654846 640.464417,528.673157 
	C638.621338,538.980042 634.183105,547.893005 626.807251,555.368774 
	C622.637817,559.594604 622.768188,560.311646 628.058167,563.254028 
	C636.262512,567.817505 642.903748,573.957336 647.375061,582.267090 
	C651.013428,589.028870 650.002930,593.874878 644.290771,598.007263 
	C637.802673,602.701172 631.964783,602.455811 626.926636,596.830811 
	C622.373962,591.747864 618.348022,586.189331 613.122498,581.722351 
	C607.733765,577.115784 601.885986,573.307678 594.703369,572.299683 
	C590.052185,571.646973 588.990906,572.950317 589.577759,577.548157 
	C591.240784,590.578125 592.924622,603.606262 594.448242,616.652893 
	C595.266174,623.656738 591.752014,627.781677 584.806824,628.429810 
	C574.958191,629.348877 569.029480,625.622070 565.889404,616.003296 
	C558.793884,594.268127 554.870117,571.795471 550.745239,549.376892 
	C546.680176,527.283630 543.315247,505.085205 541.102661,482.726135 
	C540.677185,478.426422 540.704285,474.076111 540.642517,469.747437 
	C540.526489,461.619415 543.866638,455.318359 551.540833,452.333038 
	C559.586243,449.203278 567.556702,449.474304 574.470825,455.579254 
	C575.706421,456.670258 576.771973,457.953949 577.938538,459.172211 
	C578.523132,459.028687 579.133057,459.065918 579.430054,458.779083 
	C592.626831,446.031342 617.640198,451.657257 628.119080,466.162781 
	C633.177673,473.165100 636.468445,480.907867 638.530884,489.670807 
M599.552429,557.272339 
	C608.495972,555.032776 613.132996,548.495178 615.570007,540.323853 
	C621.363892,520.896118 619.130676,501.823090 612.166260,483.108978 
	C610.471375,478.554657 608.082581,474.348145 604.687683,470.806305 
	C600.330261,466.260406 595.264954,465.159851 589.679260,467.461823 
	C583.063477,470.188293 581.086609,473.279236 581.144592,480.467010 
	C581.217163,489.469086 582.421570,498.375641 583.328308,507.304871 
	C584.856018,522.348389 586.572937,537.372925 588.050903,552.421021 
	C588.447205,556.455505 590.453796,557.999329 594.273987,557.738281 
	C595.767212,557.636230 597.263245,557.575378 599.552429,557.272339 
z"/>
<path fill="#000000" opacity="1.000000" stroke="none" 
	d="
M43.524406,282.123993 
	C39.798515,283.705780 36.319790,282.696106 32.937279,282.123962 
	C29.205467,281.492737 28.382967,278.848694 30.962132,275.997955 
	C34.205627,272.412933 37.932003,269.323486 41.884224,266.510742 
	C64.024002,250.754166 88.419739,239.278687 113.393669,228.938309 
	C173.012787,204.253174 234.940170,187.586273 298.246216,175.619934 
	C320.484894,171.416306 342.776520,167.628220 365.246490,164.996307 
	C371.651947,164.246048 378.221283,163.913498 384.620117,165.655487 
	C386.344238,166.124863 388.297791,166.335327 388.930420,168.537140 
	C388.304840,170.861893 386.287109,170.891144 384.538300,171.004929 
	C351.170898,173.175613 318.881897,181.440125 286.378540,188.438324 
	C272.557861,191.414017 258.878479,195.040817 245.101471,198.227219 
	C238.405380,199.775925 233.900070,203.472992 231.302475,209.934708 
	C225.278534,224.919708 218.993729,239.799789 212.832687,254.729843 
	C212.462860,255.626053 212.251328,256.587585 211.712265,258.347656 
	C221.353317,256.228638 230.355728,254.129120 239.412140,252.296539 
	C247.070328,250.746918 254.725494,249.033569 262.570374,248.715378 
	C264.979980,248.617630 267.682617,248.346298 268.975677,251.351288 
	C268.051483,253.983154 265.570892,253.774857 263.607819,254.262207 
	C246.812714,258.431824 230.015182,262.594727 213.177444,266.587036 
	C209.371750,267.489380 207.272903,269.403320 205.967468,273.168945 
	C196.304245,301.043274 187.637192,329.160095 183.772156,358.535797 
	C183.161179,363.179504 183.114807,367.776947 183.955887,372.438171 
	C184.676834,376.433594 186.490479,376.937103 189.855896,375.331818 
	C199.950851,370.516510 209.630447,364.974121 218.962280,358.831818 
	C231.629684,350.494019 243.943069,341.650055 256.074005,332.550262 
	C258.603790,330.652618 261.132935,328.562439 264.636414,329.246368 
	C266.409363,329.592499 268.462341,329.840271 269.177826,331.843567 
	C269.884430,333.821991 268.125977,334.833099 266.964905,335.945038 
	C254.793259,347.601746 241.878571,358.351959 228.018997,367.963623 
	C219.793808,373.667816 211.318085,378.954498 202.437149,383.562927 
	C194.694962,387.580444 186.633835,389.552460 177.854584,387.266479 
	C168.643402,384.868011 163.785797,379.297882 162.702774,369.753113 
	C161.363205,357.947083 163.923019,346.570282 166.319962,335.183655 
	C169.994644,317.727142 175.356415,300.744843 181.002838,283.845490 
	C181.721634,281.694244 183.012192,279.596100 182.392197,277.192505 
	C180.977112,275.834229 179.543549,276.519745 178.126465,276.948395 
	C156.886353,283.373138 136.108643,290.965149 116.469528,301.421265 
	C113.240776,303.140289 109.961983,304.761200 107.633736,307.798553 
	C106.974709,308.658356 105.784615,309.353394 104.714508,309.611389 
	C101.208008,310.456726 96.928947,312.214386 94.603493,308.492096 
	C92.086021,304.462402 96.668732,302.691620 99.035110,300.885681 
	C112.014885,290.979828 126.839653,284.524994 141.975784,278.777344 
	C154.435516,274.046021 167.120102,269.916779 180.092087,266.864471 
	C185.561218,265.577545 188.477737,262.935883 190.353195,257.516876 
	C195.637619,242.247879 202.016800,227.392899 209.345627,212.966507 
	C210.082901,211.515198 211.189529,210.170685 211.141571,208.332855 
	C209.583740,207.791016 208.192001,208.426559 206.794922,208.864395 
	C161.635803,223.017029 116.768402,237.919724 74.610138,259.860657 
	C64.851898,264.939270 55.310829,270.378906 45.877701,276.035645 
	C43.226925,277.625244 42.657867,279.257233 43.524406,282.123993 
z"/>
<path fill="#000000" opacity="1.000000" stroke="none" 
	d="
M557.589050,228.285614 
	C557.075073,224.529388 559.458801,224.640244 561.680420,224.673370 
	C571.428101,224.818695 583.644409,233.240021 587.220154,242.302444 
	C589.800354,248.841492 587.819946,254.818420 584.462463,260.383118 
	C576.452637,273.658447 567.712158,286.448303 558.143860,298.658478 
	C555.576050,301.935272 553.055725,305.265686 550.273315,308.355011 
	C541.317993,318.298065 526.958191,315.664612 521.922546,303.076233 
	C520.589966,299.745056 520.102051,296.075989 519.112549,292.105896 
	C513.846130,296.286377 510.151276,301.610565 505.873993,306.364990 
	C493.849976,319.730377 483.504578,334.577484 470.099487,346.728851 
	C463.834259,352.408112 456.960815,355.178619 448.610016,351.910217 
	C440.442596,348.713593 435.959930,342.750549 434.508148,334.051697 
	C433.466736,327.811737 433.979065,321.753204 435.170898,315.700623 
	C439.563293,293.394257 447.509613,272.170990 455.163910,250.865143 
	C462.710999,229.857651 470.593445,208.980530 479.807709,188.632996 
	C480.905762,186.208298 481.921875,183.706223 483.350922,181.480789 
	C485.749176,177.746002 490.540985,176.636917 494.376251,178.602158 
	C498.590820,180.761780 498.437042,184.002701 497.081940,187.927521 
	C485.671082,220.977463 472.868347,253.554474 463.014160,287.131836 
	C458.711243,301.793732 453.514923,316.300446 453.235413,331.857269 
	C453.200104,333.822418 453.230560,335.788757 453.230560,337.621674 
	C455.857147,338.575043 456.746643,336.772614 457.888855,335.774933 
	C467.449860,327.423615 475.550781,317.642670 484.359314,308.553650 
	C496.305664,296.226898 508.139771,283.793915 521.375244,272.811798 
	C523.762756,270.830750 525.322144,268.431152 526.452271,265.560150 
	C530.442444,255.422974 535.964661,246.120361 542.334106,237.314819 
	C546.217346,231.946304 549.626953,231.356445 555.594727,234.843918 
	C561.814331,238.478592 562.736816,241.142151 559.885864,247.517120 
	C554.514526,259.527893 549.086304,271.515686 544.688599,283.929810 
	C543.991943,285.896332 542.762634,287.807220 543.292175,290.067230 
	C543.553162,290.091827 543.795532,290.186188 543.870728,290.111725 
	C556.143982,277.958984 566.964355,264.715332 573.002991,248.303421 
	C575.438843,241.683151 572.557251,236.812927 565.882751,233.973984 
	C562.846313,232.682465 559.448669,231.942261 557.589050,228.285614 
z"/>
<path fill="#000000" opacity="1.000000" stroke="none" 
	d="
M404.120056,328.348145 
	C392.685028,329.647888 387.226776,322.452881 382.810059,314.099121 
	C380.674652,314.692291 380.476776,316.348999 379.913330,317.645294 
	C370.749847,338.726318 361.780365,359.883301 355.334991,382.002655 
	C354.311951,385.513580 353.254211,388.984894 353.147583,392.723114 
	C353.045898,396.289246 351.033173,397.171997 347.790222,395.399872 
	C343.943024,393.297607 342.173340,388.656097 343.034790,382.653412 
	C344.242950,374.234741 346.469604,366.041229 348.721313,357.862274 
	C353.228333,341.491455 359.245392,325.631317 365.866516,308.447327 
	C360.593750,313.451660 356.855316,318.006317 352.447144,321.901154 
	C338.342377,334.363525 323.517456,329.375000 316.449097,317.832336 
	C315.942871,317.005615 315.160492,316.347992 314.500061,315.604492 
	C311.292053,315.993896 310.081757,318.628845 308.485718,320.604370 
	C303.566040,326.693939 298.854065,332.950806 293.985626,339.082489 
	C292.167358,341.372498 290.345856,344.680847 286.777924,342.564331 
	C282.964661,340.302216 285.072083,336.968506 286.366119,334.168182 
	C291.437805,323.193268 298.472260,313.466797 306.193573,304.266632 
	C309.276489,300.593231 310.311157,296.965271 309.226562,292.334656 
	C307.744781,286.008057 306.949646,279.541321 306.806671,273.040466 
	C306.661621,266.446442 309.553467,264.664978 315.653076,267.303680 
	C319.373169,268.913025 321.946594,271.542542 323.276855,275.414520 
	C323.912140,277.263641 323.978668,279.374542 325.737213,281.049194 
	C328.350433,279.917755 330.172424,277.746521 332.179199,275.834656 
	C340.858948,267.565369 349.042572,258.735687 359.024200,251.936905 
	C360.802887,250.725357 362.670959,249.547760 364.659943,248.768555 
	C366.818085,247.923080 369.121521,248.340149 370.527832,250.293411 
	C372.224426,252.649796 369.936523,253.949677 368.582214,255.218964 
	C356.536438,266.508453 345.149170,278.434296 333.994263,290.595154 
	C328.869843,296.181732 327.769470,305.890656 331.813690,312.132355 
	C333.591461,314.876099 335.327393,312.948822 336.824188,311.887238 
	C343.767456,306.962891 350.064117,301.243103 356.451721,295.640076 
	C363.590393,289.378296 370.649078,283.023590 377.866241,276.854004 
	C380.110046,274.935883 381.560699,272.656342 382.728821,270.032257 
	C386.657867,261.205750 390.685486,252.424454 395.445160,244.001907 
	C397.002777,241.245575 398.267242,237.994720 402.394440,238.871979 
	C406.268524,239.695435 408.484192,242.087784 408.582062,246.204193 
	C408.588440,246.472275 408.930389,246.732376 409.350616,247.328918 
	C412.493652,246.739426 414.596924,244.176712 417.052002,242.408447 
	C422.200165,238.700516 427.242462,238.844696 432.417908,242.049774 
	C437.833893,245.403793 440.031708,250.048737 438.616455,256.534271 
	C433.378876,280.536255 423.319336,302.564972 410.704071,323.506989 
	C409.281769,325.868073 407.170135,327.466339 404.120056,328.348145 
M406.072479,295.615112 
	C411.632996,284.120514 417.531799,272.747009 419.979065,259.408264 
	C400.815399,265.597870 390.299011,290.765106 399.377319,307.014893 
	C402.120209,303.722595 403.685425,299.848938 406.072479,295.615112 
z"/>
<path fill="#000000" opacity="1.000000" stroke="none" 
	d="
M763.658569,493.940918 
	C766.624329,487.568909 771.563477,484.403992 777.467834,484.767822 
	C783.346069,485.130035 787.618774,488.511566 789.289856,495.203186 
	C793.734070,512.999084 796.693909,531.013428 796.278687,549.461365 
	C796.094849,557.630676 791.697815,562.694275 784.727478,566.056763 
	C780.780396,567.960815 777.038757,567.604797 774.460266,564.013367 
	C772.226685,560.902222 770.209106,561.698669 767.749084,563.271118 
	C761.166992,567.478394 754.188354,570.287476 746.142212,569.624023 
	C736.029663,568.790344 729.378540,562.873474 724.352844,554.746460 
	C717.520447,543.697937 715.836853,531.064514 713.696899,518.603333 
	C712.820923,513.502258 712.378784,508.399872 713.757874,503.263184 
	C715.187195,497.939148 718.753967,495.017395 724.612366,494.718964 
	C732.388306,494.322845 736.451111,496.378540 738.417480,501.895721 
	C740.628540,508.099945 740.342773,514.700684 741.152283,521.115479 
	C742.256775,529.867859 743.578552,538.576172 745.463196,547.178772 
	C747.529663,556.611145 757.234680,560.103149 765.295410,554.613770 
	C768.727539,552.276489 769.153625,549.072144 768.473267,545.373840 
	C765.518250,529.311401 764.603638,513.028137 763.279114,496.790466 
	C763.213074,495.981354 763.464294,495.146393 763.658569,493.940918 
z"/>
<path fill="#000000" opacity="1.000000" stroke="none" 
	d="
M857.625854,534.338501 
	C858.258057,527.907593 857.770752,521.924500 857.589233,515.931519 
	C857.433411,510.787811 860.535950,507.431793 865.554016,506.784973 
	C871.074951,506.073303 874.962708,508.403046 875.777466,513.776489 
	C877.925842,527.945923 874.978638,544.171875 862.705994,552.964539 
	C855.194824,558.345825 846.620056,560.264771 837.575562,559.071289 
	C830.207397,558.098999 825.446533,553.187927 822.201172,546.785034 
	C816.539856,535.615356 814.649292,523.401489 812.746704,511.238617 
	C810.999695,500.070496 809.480957,488.860596 808.173767,477.632751 
	C807.652527,473.155884 805.873230,470.869019 801.219482,471.287415 
	C800.564880,471.346252 799.871277,471.297607 799.232178,471.145538 
	C796.792969,470.565063 794.002136,470.117432 793.392761,467.215820 
	C792.808411,464.433624 795.146729,462.512146 797.183411,461.999298 
	C808.433105,459.166595 806.140686,450.658264 805.327637,442.964661 
	C804.782349,437.804596 804.687378,432.661011 804.712891,427.507172 
	C804.736389,422.758362 807.096619,420.588928 812.648804,419.717926 
	C819.602844,418.627014 822.628418,419.764221 824.278625,424.393250 
	C826.663330,431.082336 826.661743,438.138977 826.966980,445.098450 
	C827.354004,453.921997 827.188232,453.959900 836.191223,453.678986 
	C838.513855,453.606537 840.824646,453.199799 843.147705,453.083374 
	C846.317932,452.924408 849.564514,453.475220 850.430115,456.931274 
	C851.304443,460.422241 847.980347,461.260345 845.573059,462.174103 
	C841.688538,463.648529 837.738525,464.994629 833.733215,466.092529 
	C830.722473,466.917816 829.112732,468.401886 829.328918,471.684143 
	C830.817688,494.289307 832.995422,516.783325 839.926575,538.520630 
	C840.428772,540.095398 841.140137,541.629456 841.946045,543.075500 
	C843.241272,545.399780 844.522217,548.176086 847.592163,548.157837 
	C851.069275,548.137024 853.440735,545.784058 854.819519,542.770691 
	C855.987183,540.218567 856.679626,537.448914 857.625854,534.338501 
z"/>
<path fill="#000000" opacity="1.000000" stroke="none" 
	d="
M734.769531,267.798431 
	C727.035339,273.614014 719.770142,279.487488 712.069946,284.720947 
	C701.236206,292.084167 689.626404,295.712128 676.843445,289.522308 
	C667.929871,285.206085 663.487976,278.392853 664.889954,268.601532 
	C668.043945,246.573593 676.280579,226.582367 691.379639,209.920700 
	C698.573853,201.981949 707.498779,201.039993 716.694641,206.484802 
	C722.243042,209.769974 724.910034,214.740692 724.193909,221.139267 
	C722.935181,232.386322 719.524292,242.938293 712.815002,252.189682 
	C706.767517,260.528534 700.811157,262.139709 691.091370,258.407379 
	C689.721680,257.881439 688.333679,257.403168 686.662964,256.797241 
	C683.668762,263.424744 682.804749,270.081940 683.501099,276.949249 
	C683.778625,279.686737 685.429443,280.778046 688.057617,279.365021 
	C692.305542,277.081116 696.738159,275.046204 700.689270,272.320984 
	C719.735779,259.183868 738.655029,245.862000 757.598816,232.576172 
	C760.602539,230.469559 763.606628,228.389938 766.978333,226.898788 
	C768.989563,226.009293 771.057556,225.439850 773.277161,225.701553 
	C775.323975,225.942871 777.427551,226.470596 778.236145,228.510925 
	C779.119019,230.738556 776.956238,231.704941 775.638000,232.836639 
	C762.125854,244.436890 748.580444,255.998367 734.769531,267.798431 
M708.803589,217.667572 
	C707.530396,214.653839 706.478271,217.258667 705.836914,217.969604 
	C699.510071,224.982330 695.380371,233.285965 691.983582,242.006226 
	C690.859985,244.890610 692.233887,246.349930 695.288818,247.493912 
	C702.705383,239.159424 707.212158,229.453476 708.803589,217.667572 
z"/>
<path fill="#000000" opacity="1.000000" stroke="none" 
	d="
M910.665283,530.632690 
	C919.799683,534.657532 926.568359,528.718384 927.583557,520.184753 
	C928.093384,515.899536 927.954773,511.540833 928.315308,507.232605 
	C928.509216,504.914856 929.673645,503.070160 932.296936,502.840393 
	C934.623962,502.636566 935.990417,504.051788 936.954102,505.949127 
	C943.938843,519.701294 928.224304,545.410278 912.869873,545.358337 
	C905.203186,545.332397 899.620605,541.175659 894.987732,535.740906 
	C886.098206,525.312805 881.565369,512.845581 879.263489,499.536591 
	C877.102722,487.043701 875.607727,474.487823 878.433533,461.864563 
	C882.037170,445.766510 890.126282,439.646088 906.429688,440.668762 
	C918.175842,441.405548 927.842651,451.855347 929.244690,465.331726 
	C930.232483,474.826538 927.567932,479.905914 919.171448,484.584930 
	C914.928711,486.949280 910.448486,488.821259 905.753906,489.927856 
	C901.573181,490.913330 900.134949,492.579376 900.973999,497.200226 
	C902.575989,506.022461 903.384094,514.997009 906.429626,523.505981 
	C907.320740,525.995544 908.408813,528.466614 910.665283,530.632690 
M917.750671,471.063782 
	C919.678406,464.570404 915.961243,455.304657 910.142639,452.099365 
	C906.000977,449.817871 901.972961,451.349792 900.082458,455.986450 
	C897.810547,461.558441 898.033875,467.396820 898.555481,473.201691 
	C898.864136,476.636505 901.127930,478.236053 904.487000,477.575134 
	C909.213989,476.645142 913.960083,475.587280 917.750671,471.063782 
z"/>
<path fill="#000000" opacity="1.000000" stroke="none" 
	d="
M695.125000,497.827454 
	C709.747864,513.805481 713.047424,538.265564 703.222351,556.103027 
	C697.360168,566.745728 686.578369,572.500122 676.525635,570.364502 
	C671.248108,569.243347 666.949707,566.388428 663.626709,562.317444 
	C651.160156,547.044983 646.564514,529.564270 651.305786,510.430786 
	C656.309387,490.238678 677.389343,484.310333 695.125000,497.827454 
M685.688904,551.071350 
	C687.656372,541.267273 686.740601,531.554565 684.477234,521.952637 
	C683.298279,516.950684 681.792297,511.975037 678.214722,508.010742 
	C676.205811,505.784698 673.741638,504.474609 670.671021,505.240753 
	C667.626953,506.000275 666.840149,508.571167 666.185913,511.241699 
	C664.564819,517.858093 665.273132,524.469238 666.401123,531.013977 
	C667.951721,540.010742 669.558594,549.104614 675.251404,556.621826 
	C678.699524,561.175110 682.354553,560.476562 684.550110,555.214233 
	C684.995117,554.147766 685.242798,552.998840 685.688904,551.071350 
z"/>
<path fill="#000000" opacity="1.000000" stroke="none" 
	d="
M606.294800,237.385529 
	C608.325195,234.105026 610.034668,231.046951 612.037354,228.194733 
	C615.320312,223.519119 618.288208,222.707642 623.131226,224.830475 
	C628.539185,227.200958 629.665955,229.387344 628.589478,235.334503 
	C628.506531,235.792435 628.626892,236.287170 628.647400,236.665665 
	C629.544250,237.592056 630.322083,237.053345 630.946716,236.594055 
	C636.256775,232.689926 641.909851,232.325699 647.943481,234.681656 
	C651.283752,235.985901 654.742493,236.126236 658.224548,235.115616 
	C659.683105,234.692291 661.194885,234.541519 662.648621,235.056107 
	C664.079712,235.562698 665.506897,236.256470 665.651978,238.019394 
	C665.786438,239.654846 664.417908,240.261307 663.257141,240.868027 
	C659.753723,242.699310 656.047852,243.619949 652.210938,242.217163 
	C646.454956,240.112747 641.900269,241.930161 637.717285,245.947861 
	C625.580994,257.604828 616.513367,271.472351 608.514404,286.124237 
	C607.558716,287.874908 606.619995,289.640076 605.782166,291.448883 
	C603.849121,295.621948 601.183777,298.352539 596.067627,296.997437 
	C590.562317,295.539276 587.190857,291.620697 587.378235,286.312836 
	C587.562195,281.102661 589.342285,276.202972 591.001953,271.339081 
	C594.985718,259.663971 600.383118,248.604904 606.294800,237.385529 
z"/>
<path fill="#000000" opacity="1.000000" stroke="none" 
	d="
M915.487793,607.665283 
	C923.293762,621.569946 930.926392,635.168030 938.895203,649.365051 
	C934.692139,649.807373 933.482178,647.718872 932.015320,646.316895 
	C926.604004,641.144958 921.232666,635.924744 916.022827,630.551514 
	C913.896729,628.358643 912.378296,628.489868 910.223267,630.487244 
	C904.369995,635.912231 898.358704,641.167542 892.375366,646.450928 
	C891.072876,647.601013 890.081726,649.449768 887.877197,648.917114 
	C886.631470,647.815308 887.302734,646.729431 887.881897,645.752502 
	C895.345215,633.162598 902.834106,620.587769 910.320190,608.011353 
	C911.702454,605.689270 913.172180,603.919556 915.487793,607.665283 
z"/>
<path fill="#000000" opacity="1.000000" stroke="none" 
	d="
M855.663269,693.012695 
	C860.059204,692.943420 864.023254,692.890564 867.986023,692.940857 
	C871.153198,692.981079 873.684143,694.372375 873.946655,697.668030 
	C874.204956,700.911072 871.692078,702.092896 868.836426,702.614197 
	C864.725586,703.364563 860.630188,703.342651 856.517212,702.664429 
	C853.905701,702.233704 851.559570,701.316284 851.139160,698.385986 
	C850.713135,695.416260 852.561523,693.843384 855.663269,693.012695 
z"/>
<path fill="#000000" opacity="1.000000" stroke="none" 
	d="
M618.325867,756.299316 
	C622.824036,758.952942 626.515076,762.031982 629.848755,765.514404 
	C631.867737,767.623657 632.783752,770.089844 630.402893,772.544556 
	C628.079407,774.940186 625.621887,774.311096 623.321716,772.393738 
	C620.265686,769.846313 617.218262,767.286987 614.223633,764.668152 
	C612.514465,763.173401 611.259338,761.337524 612.337219,758.986450 
	C613.409302,756.648132 615.250854,755.413635 618.325867,756.299316 
z"/>
<path fill="#000000" opacity="1.000000" stroke="none" 
	d="
M630.571533,839.579956 
	C628.454407,836.340271 629.102722,833.821167 631.976135,832.097290 
	C635.155457,830.189819 637.820007,827.825989 640.156128,824.958252 
	C641.901184,822.816040 644.232117,821.977539 646.716370,823.828003 
	C649.360168,825.797119 649.311829,828.328918 647.535156,830.810852 
	C644.705505,834.763672 641.242188,838.052307 636.829712,840.239868 
	C634.747925,841.272095 632.730286,841.554688 630.571533,839.579956 
z"/>
<path fill="#000000" opacity="1.000000" stroke="none" 
	d="
M582.096924,697.084717 
	C577.782349,695.357910 577.163025,692.503906 578.995789,688.955750 
	C580.894348,685.280151 582.812561,681.602051 584.973022,678.078796 
	C586.470764,675.636292 588.896362,674.924866 591.423889,676.449646 
	C593.968262,677.984680 594.278748,680.365417 592.948975,682.929993 
	C591.042786,686.606384 589.077454,690.252197 587.132996,693.908691 
	C586.138794,695.778259 584.727905,697.055603 582.096924,697.084717 
z"/>
<path fill="#000000" opacity="1.000000" stroke="none" 
	d="
M826.449707,682.482605 
	C828.820190,683.757507 830.927307,684.750488 832.891724,685.972778 
	C835.217712,687.420166 836.612976,689.524780 835.222656,692.245972 
	C833.816772,694.997803 831.416626,695.915771 828.545654,694.410400 
	C824.882019,692.489319 821.267151,690.469604 817.689697,688.391602 
	C814.857910,686.746765 813.648682,684.267151 815.412109,681.294983 
	C817.261169,678.178345 819.963074,678.542297 822.697998,680.284973 
	C823.814758,680.996521 824.979919,681.632080 826.449707,682.482605 
z"/>
<path fill="#000000" opacity="1.000000" stroke="none" 
	d="
M648.108704,790.018982 
	C649.463806,793.456848 650.789062,796.515076 651.804688,799.672913 
	C652.823059,802.839111 652.496460,805.921204 648.780212,806.944519 
	C645.324585,807.896057 643.706604,805.522644 642.696777,802.538269 
	C641.739563,799.709412 640.733337,796.877502 639.470459,794.177002 
	C638.034241,791.105896 636.751465,788.001404 640.564758,785.981018 
	C644.366394,783.966736 646.362854,786.672791 648.108704,790.018982 
z"/>
<path fill="#000000" opacity="1.000000" stroke="none" 
	d="
M616.494995,646.649780 
	C620.790344,650.036255 621.054871,651.894104 617.693787,655.084595 
	C614.699951,657.926331 611.519287,660.573059 608.387390,663.266724 
	C606.571045,664.828918 604.536987,665.222290 602.479614,663.800171 
	C600.658142,662.541138 599.529663,660.376709 600.782837,658.647400 
	C604.716309,653.219604 608.868286,647.837097 616.494995,646.649780 
z"/>
<path fill="#000000" opacity="1.000000" stroke="none" 
	d="
M792.268311,669.823425 
	C789.816162,668.047852 787.606934,666.554626 785.497192,664.931946 
	C782.989014,663.003052 781.612610,660.585388 783.777466,657.655273 
	C785.788086,654.933960 788.379517,655.432434 790.833435,657.116699 
	C793.851379,659.188049 796.850403,661.293945 799.763855,663.508301 
	C802.285583,665.425232 804.492126,667.711914 801.982361,671.012939 
	C799.616699,674.124390 796.835449,673.354248 794.155151,671.244324 
	C793.632202,670.832642 793.089111,670.446411 792.268311,669.823425 
z"/>
<path fill="#000000" opacity="1.000000" stroke="none" 
	d="
M906.179077,675.849976 
	C908.082520,678.542664 907.563843,680.748352 905.873169,682.968079 
	C903.222534,686.447998 899.945435,689.273926 896.569580,691.972900 
	C894.395935,693.710754 891.914795,694.064087 889.895325,691.711487 
	C887.944092,689.438477 888.387329,687.059021 890.380066,685.005493 
	C893.276184,682.020813 896.246826,679.108032 899.206299,676.185425 
	C901.270630,674.146912 903.518860,673.856262 906.179077,675.849976 
z"/>
<path fill="#000000" opacity="1.000000" stroke="none" 
	d="
M599.751587,825.140930 
	C603.153503,827.535645 606.241272,829.724182 609.732727,831.309265 
	C612.659180,832.637939 614.240234,834.901855 612.682373,838.083862 
	C611.214233,841.082703 608.514771,840.982239 605.834473,839.892029 
	C601.981750,838.324890 598.539368,836.057556 595.310974,833.442871 
	C593.189636,831.724915 591.921997,829.643616 593.137634,826.976868 
	C594.411316,824.182678 596.795837,823.960144 599.751587,825.140930 
z"/>
<path fill="#000000" opacity="1.000000" stroke="none" 
	d="
M583.039978,796.067993 
	C584.290039,799.572510 585.362671,802.719666 586.551453,805.822266 
	C587.632385,808.643372 586.800415,810.846619 584.244934,812.112854 
	C581.497192,813.474426 579.259094,812.216248 578.095459,809.643066 
	C576.524231,806.168335 575.272644,802.545410 573.962341,798.957397 
	C572.809814,795.801453 572.122925,792.453369 576.179993,791.008850 
	C580.168213,789.588806 581.907959,792.331238 583.039978,796.067993 
z"/>
<path fill="#000000" opacity="1.000000" stroke="none" 
	d="
M517.807678,759.065430 
	C513.306458,760.364929 509.163635,761.510620 505.020538,762.655334 
	C501.998779,763.490295 499.648834,762.591919 498.704193,759.561279 
	C497.695770,756.326111 499.669189,754.559570 502.505890,753.694580 
	C506.140625,752.586182 509.840637,751.693054 513.484070,750.611389 
	C516.139160,749.823059 518.501587,750.052673 520.012390,752.570129 
	C521.599243,755.214294 520.504211,757.296753 517.807678,759.065430 
z"/>
<path fill="#000000" opacity="1.000000" stroke="none" 
	d="
M575.912598,745.880859 
	C576.524292,741.440857 579.121582,740.286621 582.761597,741.056946 
	C586.654785,741.880859 590.541809,742.789246 594.354980,743.918945 
	C597.231689,744.771057 599.009766,746.830017 598.063782,749.963501 
	C597.121460,753.084778 594.523010,753.691772 591.618164,753.034607 
	C587.733337,752.155701 583.877808,751.147705 580.002991,750.223328 
	C577.852051,749.710205 576.535400,748.380005 575.912598,745.880859 
z"/>
<path fill="#000000" opacity="1.000000" stroke="none" 
	d="
M767.595703,643.311829 
	C769.959290,645.613403 770.268250,647.950195 768.338135,650.158325 
	C766.539551,652.216187 764.154724,651.858215 761.922485,650.832642 
	C758.463318,649.243469 755.032227,647.589294 751.628662,645.883972 
	C749.017578,644.575623 747.165771,642.614380 748.553223,639.539551 
	C750.008301,636.314697 752.775452,636.104858 755.692566,637.453796 
	C759.597839,639.259644 763.439758,641.202637 767.595703,643.311829 
z"/>
<path fill="#000000" opacity="1.000000" stroke="none" 
	d="
M652.105957,628.886719 
	C656.025879,633.140015 655.614746,635.706116 650.872437,637.702087 
	C647.203308,639.246399 643.466858,640.652283 639.692932,641.918945 
	C636.840881,642.876221 634.255737,642.255188 633.135864,639.187317 
	C632.086548,636.312866 633.668884,634.265503 636.215942,633.229309 
	C641.228027,631.190186 645.979309,628.135803 652.105957,628.886719 
z"/>
<path fill="#000000" opacity="1.000000" stroke="none" 
	d="
M677.053650,632.684204 
	C673.334961,632.789490 671.023682,631.358337 671.063293,627.900330 
	C671.100525,624.655457 673.690369,623.391602 676.486023,623.172424 
	C680.595825,622.850098 684.739807,622.747986 688.860840,622.860107 
	C691.662048,622.936279 693.687988,624.657898 693.715820,627.516052 
	C693.744141,630.436218 691.620544,631.940857 688.850647,632.149109 
	C685.064270,632.433899 681.260010,632.480347 677.053650,632.684204 
z"/>
<path fill="#000000" opacity="1.000000" stroke="none" 
	d="
M548.845459,742.717163 
	C550.911194,742.416443 552.547852,741.958008 554.188538,741.942810 
	C556.785339,741.918823 558.741943,743.141907 559.158142,745.866943 
	C559.573425,748.586304 558.165894,750.490784 555.587280,751.050049 
	C551.214417,751.998413 546.786682,752.734619 542.352234,753.343201 
	C539.511475,753.733093 537.372742,752.476440 536.929077,749.487244 
	C536.475830,746.433838 538.414062,744.884460 541.094604,744.221313 
	C543.508667,743.623962 545.974976,743.237610 548.845459,742.717163 
z"/>
<path fill="#000000" opacity="1.000000" stroke="none" 
	d="
M574.145508,712.293640 
	C577.169250,712.563721 579.307800,714.121277 579.050659,716.650574 
	C578.518433,721.887268 577.440063,727.091125 576.228210,732.223938 
	C575.797485,734.048035 573.905518,735.022827 571.889954,734.947510 
	C570.265686,734.886719 569.133545,733.876648 568.356262,732.516907 
	C566.043701,728.471008 569.739563,714.750366 574.145508,712.293640 
z"/>
<path fill="#000000" opacity="1.000000" stroke="none" 
	d="
M567.424438,764.367920 
	C567.171936,761.450500 566.780273,758.960449 566.874817,756.489014 
	C566.981323,753.707947 568.431824,751.647461 571.471375,751.616028 
	C574.218506,751.587524 575.782776,753.418579 576.133240,755.951782 
	C576.679199,759.897034 576.980286,763.880859 577.257141,767.857239 
	C577.471558,770.936340 576.741028,773.797119 573.122070,774.113647 
	C569.175720,774.458679 568.203674,771.464539 567.779480,768.283020 
	C567.625916,767.131287 567.589539,765.963806 567.424438,764.367920 
z"/>
<path fill="#000000" opacity="1.000000" stroke="none" 
	d="
M907.684570,647.070557 
	C907.678040,645.099182 907.648804,643.604248 907.671326,642.110046 
	C907.714661,639.228943 909.062439,637.225342 911.997375,636.985962 
	C914.737671,636.762390 916.432617,638.606995 916.851807,641.084534 
	C917.657654,645.847168 917.644592,650.692627 916.834717,655.456665 
	C916.376587,658.151245 914.592896,660.139648 911.676697,659.867188 
	C908.714417,659.590393 907.599121,657.354736 907.624756,654.521851 
	C907.645874,652.197021 907.665161,649.872192 907.684570,647.070557 
z"/>
<path fill="#000000" opacity="1.000000" stroke="none" 
	d="
M715.529175,634.872559 
	C712.116028,633.945190 709.722473,632.429688 710.659180,628.847961 
	C711.584412,625.310303 714.504211,625.081604 717.496155,625.694946 
	C721.233582,626.461121 724.969238,627.273804 728.647156,628.280151 
	C731.252441,628.993103 733.286194,630.651672 732.744507,633.644592 
	C732.149414,636.932556 729.517273,637.707336 726.623474,637.232178 
	C723.027100,636.641602 719.480286,635.749084 715.529175,634.872559 
z"/>
<path fill="#000000" opacity="1.000000" stroke="none" 
	d="
M397.249939,575.972961 
	C399.406952,585.883789 396.174255,592.010620 386.474060,594.404846 
	C383.741302,595.079285 381.407745,598.498901 378.303741,594.715576 
	C377.271362,593.457275 375.551270,594.984619 374.275574,595.717407 
	C357.672333,605.253906 347.680511,599.811279 346.818695,580.779358 
	C346.449677,572.629456 346.126709,564.475281 345.580536,556.336609 
	C345.350586,552.910278 346.672974,550.950684 349.908417,550.136108 
	C354.216919,549.051270 358.029083,546.366699 362.456573,545.973511 
	C364.260986,547.751831 364.020538,549.839417 364.115387,551.790344 
	C364.527924,560.274719 364.860718,568.763000 365.263214,577.247925 
	C365.427155,580.704102 365.002716,584.771790 369.730743,585.483276 
	C373.449188,586.042847 377.832642,581.406555 377.931702,576.924438 
	C378.030914,572.436218 377.709808,567.933350 377.448242,563.444153 
	C377.206146,559.289795 376.829834,555.142273 376.450989,550.997314 
	C376.274445,549.065186 376.282990,547.189758 378.396423,546.353088 
	C383.598419,544.293823 388.844849,542.346802 394.652283,540.134094 
	C396.387390,552.352234 396.187805,563.977722 397.249939,575.972961 
z"/>
<path fill="#000000" opacity="1.000000" stroke="none" 
	d="
M286.099915,574.541016 
	C288.668335,566.267151 294.341736,561.569336 300.815338,556.652222 
	C307.766937,551.372070 314.573608,551.998657 321.676758,553.300659 
	C342.099091,557.044067 345.221619,582.223267 336.491943,594.807190 
	C329.625793,604.704956 316.105347,610.039490 303.950775,607.119141 
	C293.759399,604.670532 286.616333,595.740356 285.184113,583.828369 
	C284.816833,580.773804 285.688568,577.892029 286.099915,574.541016 
M313.227478,566.543701 
	C309.940460,566.417725 307.405243,567.757385 305.684814,570.540649 
	C302.419189,575.823914 303.214111,586.197693 307.203400,590.893677 
	C311.059875,595.433289 317.018219,595.496277 320.536560,591.034607 
	C326.336853,583.679138 322.675751,570.167480 313.227478,566.543701 
z"/>
<path fill="#000000" opacity="1.000000" stroke="none" 
	d="
M254.813599,597.028687 
	C256.050476,588.426208 253.164383,581.672180 248.336761,575.328064 
	C244.517319,570.308838 241.301254,564.834900 237.644073,559.685974 
	C235.535156,556.716797 235.896210,554.616150 239.007584,552.736450 
	C251.721390,545.055542 249.011551,545.630737 256.430237,555.320374 
	C258.597992,558.151733 260.051086,561.697327 263.627869,563.525330 
	C266.927643,561.262329 266.902130,557.435669 268.200134,554.337891 
	C270.451111,548.965637 280.681915,541.539917 286.336975,541.646912 
	C289.755920,541.711548 288.759521,544.095825 288.125580,545.921997 
	C285.401123,553.770508 282.954102,561.744690 279.704346,569.374268 
	C275.451172,579.359558 273.163666,589.542725 274.295013,600.377930 
	C274.723724,604.483582 273.202087,607.341431 269.678741,609.502197 
	C266.570251,611.408569 263.789948,613.842346 260.737518,615.849792 
	C257.360138,618.070984 255.274841,616.788757 255.063354,612.979004 
	C254.778000,607.838013 254.879745,602.675476 254.813599,597.028687 
z"/>
<path fill="#000000" opacity="1.000000" stroke="none" 
	d="
M438.299622,533.036743 
	C441.142639,533.238892 440.815063,535.137939 440.817078,536.747192 
	C440.818481,537.905273 440.369904,539.085327 440.486511,540.218140 
	C441.025146,545.450073 439.456879,548.169312 433.562042,549.058838 
	C426.183350,550.172180 423.937714,553.975891 424.379333,561.490295 
	C424.759918,567.966431 425.268433,574.435242 425.744629,580.905518 
	C425.843079,582.243103 426.204437,583.778870 424.973724,584.633850 
	C420.459869,587.769653 415.704651,590.583374 410.539368,592.436340 
	C407.700775,593.454712 407.314362,590.723389 407.122742,588.790588 
	C406.630493,583.825073 406.330322,578.839600 405.997803,573.859131 
	C405.388153,564.728088 404.863831,555.590820 404.187714,546.464783 
	C403.977905,543.633057 405.251160,542.114441 407.746887,541.226501 
	C410.881775,540.111084 414.089081,539.130737 417.084656,537.711243 
	C420.209503,536.230530 422.966125,535.126770 424.648926,539.501831 
	C429.276764,537.268860 433.593933,535.185791 438.299622,533.036743 
z"/>
</svg>